<svg width="320" height="320" viewBox="0 0 320 320" fill="none" xmlns="http://www.w3.org/2000/svg">
<path d="M139.747 139.01C139.747 144.979 139.747 154.175 128.616 154.175C121.841 154.175 119.099 150.465 117.485 144.334C111.517 151.433 104.257 155.143 95.385 155.143C73.6072 155.143 57 136.59 57 110.463C57 84.9815 74.0996 65.4606 95.385 65.4606C103.935 65.4606 112.323 68.8485 117.485 76.1084C118.131 70.4618 122.97 66.4286 128.616 66.4286C139.747 66.4286 139.747 75.6244 139.747 81.5936V139.01ZM98.6198 133.848C110.719 133.848 116.526 121.586 116.526 110.463C116.526 99.3314 110.88 86.7562 98.6198 86.7562C85.8757 86.7562 80.2297 99.3314 80.2297 110.463C80.2381 121.586 86.0371 133.848 98.6198 133.848ZM127.097 227.122C121.289 227.122 116.127 222.605 108.706 222.605C95.4784 222.605 89.1955 234.382 89.1955 246.32C89.1955 257.774 96.1321 269.713 108.706 269.713C114.514 269.713 123.225 264.873 125.967 264.873C131.452 264.873 135.969 269.552 135.969 275.037C135.969 286.967 115.966 291 107.586 291C82.5815 291 65.9743 270.52 65.9743 246.32C65.9743 222.774 83.0739 201.317 107.586 201.317C116.781 201.317 135.969 204.705 135.969 215.999C135.96 220.83 132.573 227.122 127.097 227.122ZM179.261 41.9064C179.261 34.1626 184.092 29 190.868 29C197.643 29 202.482 34.1626 202.482 41.9064V73.5186C208.613 68.1947 216.509 65.4521 224.583 65.4521C249.579 65.4521 262 88.8365 262 111.423C262 133.364 247.167 155.135 223.768 155.135C215.872 155.135 206.838 151.585 202.482 144.487C201.031 150.617 197.32 154.167 190.868 154.167C184.092 154.167 179.261 149.004 179.261 141.26V41.9064ZM220.711 133.848C232.81 133.848 238.779 121.272 238.779 110.463C238.779 99.4927 232.81 86.7562 220.711 86.7562C208.29 86.7562 202.491 98.3719 202.491 109.657C202.491 120.95 207.967 133.848 220.711 133.848ZM258.612 277.126C258.612 284.869 253.781 290.04 247.006 290.04C240.553 290.04 236.843 286.491 235.4 280.361C231.036 287.451 222.002 291 214.106 291C190.715 291 175.874 269.229 175.874 247.297C175.874 224.71 188.295 201.326 213.291 201.326C221.357 201.326 229.261 204.06 235.4 209.384V177.772C235.4 170.019 240.231 164.865 247.006 164.865C253.781 164.865 258.612 170.028 258.612 177.772V277.126ZM217.162 222.605C205.064 222.605 199.095 235.35 199.095 246.32C199.095 257.129 205.064 269.713 217.162 269.713C229.906 269.713 235.391 256.798 235.391 245.513C235.4 234.22 229.584 222.605 217.162 222.605Z" fill="white"/>
</svg>
