<svg width="205" height="262" viewBox="0 0 205 262" fill="none" xmlns="http://www.w3.org/2000/svg">
<path d="M82.7472 110.01C82.7472 115.979 82.7471 125.175 71.6163 125.175C64.841 125.175 62.0986 121.465 60.4854 115.334C54.5167 122.433 47.2574 126.143 38.385 126.143C16.6072 126.143 0 107.59 0 81.4632C0 55.9815 17.0996 36.4606 38.385 36.4606C46.9348 36.4606 55.3233 39.8485 60.4854 47.1084C61.1307 41.4618 65.9702 37.4286 71.6163 37.4286C82.7471 37.4286 82.7472 46.6244 82.7472 52.5936V110.01V110.01ZM41.6198 104.848C53.7186 104.848 59.526 92.5865 59.526 81.4632C59.526 70.3314 53.8799 57.7562 41.6198 57.7562C28.8758 57.7562 23.2297 70.3314 23.2297 81.4632C23.2381 92.5865 29.0371 104.848 41.6198 104.848ZM70.0965 198.122C64.2891 198.122 59.1269 193.605 51.7064 193.605C38.4784 193.605 32.1955 205.382 32.1955 217.32C32.1955 228.774 39.1321 240.713 51.7064 240.713C57.5138 240.713 66.2249 235.873 68.9673 235.873C74.4521 235.873 78.9689 240.552 78.9689 246.037C78.9689 257.967 58.9656 262 50.5856 262C25.5815 262 8.97432 241.52 8.97432 217.32C8.97432 193.774 26.0739 172.317 50.5856 172.317C59.7807 172.317 78.9689 175.705 78.9689 186.999C78.9605 191.83 75.5728 198.122 70.0965 198.122V198.122ZM122.261 12.9064C122.261 5.16256 127.092 0 133.868 0C140.643 0 145.483 5.16256 145.483 12.9064V44.5186C151.613 39.1947 159.509 36.4521 167.583 36.4521C192.579 36.4521 205 59.8365 205 82.4227C205 104.364 190.167 126.135 166.768 126.135C158.872 126.135 149.838 122.585 145.483 115.487C144.031 121.617 140.32 125.167 133.868 125.167C127.092 125.167 122.261 120.004 122.261 112.26V12.9064V12.9064ZM163.711 104.848C175.81 104.848 181.779 92.2723 181.779 81.4632C181.779 70.4927 175.81 57.7562 163.711 57.7562C151.29 57.7562 145.491 69.3719 145.491 80.6565C145.491 91.9496 150.967 104.848 163.711 104.848ZM201.612 248.126C201.612 255.869 196.781 261.041 190.006 261.041C183.553 261.041 179.843 257.491 178.4 251.361C174.036 258.451 165.002 262 157.106 262C133.715 262 118.874 240.229 118.874 218.297C118.874 195.71 131.295 172.326 156.291 172.326C164.357 172.326 172.261 175.06 178.4 180.384V148.772C178.4 141.019 183.231 135.865 190.006 135.865C196.781 135.865 201.612 141.028 201.612 148.772V248.126ZM160.162 193.605C148.064 193.605 142.095 206.35 142.095 217.32C142.095 228.129 148.064 240.713 160.162 240.713C172.906 240.713 178.391 227.798 178.391 216.513C178.4 205.22 172.584 193.605 160.162 193.605V193.605Z" fill="white"/>
</svg>
